<mxfile host="app.diagrams.net" agent="Mozilla/5.0 (Windows NT 10.0; Win64; x64) AppleWebKit/537.36 (KHTML, like Gecko) Chrome/135.0.0.0 Safari/537.36" version="26.1.0">
  <diagram name="第 1 页" id="doZHP4BP8xsDbnR3GiNU">
    <mxGraphModel dx="2832" dy="-4333" grid="1" gridSize="10" guides="1" tooltips="1" connect="1" arrows="1" fold="1" page="1" pageScale="1" pageWidth="827" pageHeight="1169" math="0" shadow="0">
      <root>
        <mxCell id="0" />
        <mxCell id="1" parent="0" />
        <mxCell id="ZAZgl5KKmcQe44znKTHs-125" value="Input: 20 channels" style="whiteSpace=wrap;strokeWidth=2;" vertex="1" parent="1">
          <mxGeometry x="717" y="6810" width="192" height="54" as="geometry" />
        </mxCell>
        <mxCell id="ZAZgl5KKmcQe44znKTHs-126" value="inc: DoubleConv 20-&gt;64-&gt;64" style="whiteSpace=wrap;strokeWidth=2;" vertex="1" parent="1">
          <mxGeometry x="518" y="6914" width="260" height="54" as="geometry" />
        </mxCell>
        <mxCell id="ZAZgl5KKmcQe44znKTHs-127" value="down1: MaxPool + DoubleConv 64-&gt;128-&gt;128" style="whiteSpace=wrap;strokeWidth=2;" vertex="1" parent="1">
          <mxGeometry x="436" y="7018" width="260" height="54" as="geometry" />
        </mxCell>
        <mxCell id="ZAZgl5KKmcQe44znKTHs-128" value="down2: MaxPool + DoubleConv 128-&gt;256-&gt;256" style="whiteSpace=wrap;strokeWidth=2;" vertex="1" parent="1">
          <mxGeometry x="353" y="7122" width="260" height="54" as="geometry" />
        </mxCell>
        <mxCell id="ZAZgl5KKmcQe44znKTHs-129" value="down3: MaxPool + DoubleConv 256-&gt;512-&gt;512" style="whiteSpace=wrap;strokeWidth=2;" vertex="1" parent="1">
          <mxGeometry x="271" y="7226" width="260" height="54" as="geometry" />
        </mxCell>
        <mxCell id="ZAZgl5KKmcQe44znKTHs-130" value="down4: MaxPool + DoubleConv 512-&gt;512-&gt;512" style="whiteSpace=wrap;strokeWidth=2;" vertex="1" parent="1">
          <mxGeometry x="180" y="7330" width="260" height="54" as="geometry" />
        </mxCell>
        <mxCell id="ZAZgl5KKmcQe44znKTHs-131" value="up1: Upsample + Concat + DoubleConv 1024-&gt;512-&gt;256" style="whiteSpace=wrap;strokeWidth=2;" vertex="1" parent="1">
          <mxGeometry x="271" y="7434" width="260" height="54" as="geometry" />
        </mxCell>
        <mxCell id="ZAZgl5KKmcQe44znKTHs-132" value="up2: Upsample + Concat + DoubleConv 512-&gt;256-&gt;128" style="whiteSpace=wrap;strokeWidth=2;" vertex="1" parent="1">
          <mxGeometry x="353" y="7538" width="260" height="54" as="geometry" />
        </mxCell>
        <mxCell id="ZAZgl5KKmcQe44znKTHs-133" value="up3: Upsample + Concat + DoubleConv 256-&gt;128-&gt;64" style="whiteSpace=wrap;strokeWidth=2;" vertex="1" parent="1">
          <mxGeometry x="436" y="7642" width="260" height="54" as="geometry" />
        </mxCell>
        <mxCell id="ZAZgl5KKmcQe44znKTHs-134" value="up4: Upsample + Concat + DoubleConv 128-&gt;64-&gt;64" style="whiteSpace=wrap;strokeWidth=2;" vertex="1" parent="1">
          <mxGeometry x="518" y="7746" width="260" height="54" as="geometry" />
        </mxCell>
        <mxCell id="ZAZgl5KKmcQe44znKTHs-135" value="spectralAttention: 1540-&gt;128-&gt;20" style="whiteSpace=wrap;strokeWidth=2;" vertex="1" parent="1">
          <mxGeometry x="828" y="6914" width="260" height="54" as="geometry" />
        </mxCell>
        <mxCell id="ZAZgl5KKmcQe44znKTHs-136" value="outc: Conv 64-&gt;77" style="whiteSpace=wrap;strokeWidth=2;" vertex="1" parent="1">
          <mxGeometry x="553" y="7850" width="190" height="54" as="geometry" />
        </mxCell>
        <mxCell id="ZAZgl5KKmcQe44znKTHs-137" value="Output: 77 channels" style="whiteSpace=wrap;strokeWidth=2;" vertex="1" parent="1">
          <mxGeometry x="546" y="7954" width="205" height="54" as="geometry" />
        </mxCell>
        <mxCell id="ZAZgl5KKmcQe44znKTHs-138" value="" style="curved=1;startArrow=none;endArrow=block;exitX=0.06;exitY=1;entryX=0.5;entryY=0;rounded=0;" edge="1" parent="1" source="ZAZgl5KKmcQe44znKTHs-125" target="ZAZgl5KKmcQe44znKTHs-126">
          <mxGeometry relative="1" as="geometry">
            <Array as="points">
              <mxPoint x="648" y="6889" />
            </Array>
          </mxGeometry>
        </mxCell>
        <mxCell id="ZAZgl5KKmcQe44znKTHs-139" value="" style="curved=1;startArrow=none;endArrow=block;exitX=0.34;exitY=1;entryX=0.5;entryY=0;rounded=0;" edge="1" parent="1" source="ZAZgl5KKmcQe44znKTHs-126" target="ZAZgl5KKmcQe44znKTHs-127">
          <mxGeometry relative="1" as="geometry">
            <Array as="points">
              <mxPoint x="566" y="6993" />
            </Array>
          </mxGeometry>
        </mxCell>
        <mxCell id="ZAZgl5KKmcQe44znKTHs-140" value="" style="curved=1;startArrow=none;endArrow=block;exitX=0.33;exitY=1;entryX=0.5;entryY=0;rounded=0;" edge="1" parent="1" source="ZAZgl5KKmcQe44znKTHs-127" target="ZAZgl5KKmcQe44znKTHs-128">
          <mxGeometry relative="1" as="geometry">
            <Array as="points">
              <mxPoint x="483" y="7097" />
            </Array>
          </mxGeometry>
        </mxCell>
        <mxCell id="ZAZgl5KKmcQe44znKTHs-141" value="" style="curved=1;startArrow=none;endArrow=block;exitX=0.34;exitY=1;entryX=0.5;entryY=0;rounded=0;" edge="1" parent="1" source="ZAZgl5KKmcQe44znKTHs-128" target="ZAZgl5KKmcQe44znKTHs-129">
          <mxGeometry relative="1" as="geometry">
            <Array as="points">
              <mxPoint x="401" y="7201" />
            </Array>
          </mxGeometry>
        </mxCell>
        <mxCell id="ZAZgl5KKmcQe44znKTHs-142" value="" style="curved=1;startArrow=none;endArrow=block;exitX=0.32;exitY=1;entryX=0.5;entryY=0;rounded=0;" edge="1" parent="1" source="ZAZgl5KKmcQe44znKTHs-129" target="ZAZgl5KKmcQe44znKTHs-130">
          <mxGeometry relative="1" as="geometry">
            <Array as="points">
              <mxPoint x="310" y="7305" />
            </Array>
          </mxGeometry>
        </mxCell>
        <mxCell id="ZAZgl5KKmcQe44znKTHs-143" value="" style="curved=1;startArrow=none;endArrow=block;exitX=0.5;exitY=1;entryX=0.32;entryY=0;rounded=0;" edge="1" parent="1" source="ZAZgl5KKmcQe44znKTHs-130" target="ZAZgl5KKmcQe44znKTHs-131">
          <mxGeometry relative="1" as="geometry">
            <Array as="points">
              <mxPoint x="310" y="7409" />
            </Array>
          </mxGeometry>
        </mxCell>
        <mxCell id="ZAZgl5KKmcQe44znKTHs-144" value="Skip" style="curved=1;startArrow=none;endArrow=block;exitX=0.68;exitY=1;entryX=0.68;entryY=0;rounded=0;" edge="1" parent="1" source="ZAZgl5KKmcQe44znKTHs-129" target="ZAZgl5KKmcQe44znKTHs-131">
          <mxGeometry relative="1" as="geometry">
            <Array as="points">
              <mxPoint x="492" y="7305" />
              <mxPoint x="492" y="7409" />
            </Array>
          </mxGeometry>
        </mxCell>
        <mxCell id="ZAZgl5KKmcQe44znKTHs-145" value="" style="curved=1;startArrow=none;endArrow=block;exitX=0.5;exitY=1;entryX=0.34;entryY=0;rounded=0;" edge="1" parent="1" source="ZAZgl5KKmcQe44znKTHs-131" target="ZAZgl5KKmcQe44znKTHs-132">
          <mxGeometry relative="1" as="geometry">
            <Array as="points">
              <mxPoint x="401" y="7513" />
            </Array>
          </mxGeometry>
        </mxCell>
        <mxCell id="ZAZgl5KKmcQe44znKTHs-146" value="Skip" style="curved=1;startArrow=none;endArrow=block;exitX=0.74;exitY=1;entryX=0.74;entryY=0;rounded=0;" edge="1" parent="1" source="ZAZgl5KKmcQe44znKTHs-128" target="ZAZgl5KKmcQe44znKTHs-132">
          <mxGeometry relative="1" as="geometry">
            <Array as="points">
              <mxPoint x="601" y="7201" />
              <mxPoint x="601" y="7513" />
            </Array>
          </mxGeometry>
        </mxCell>
        <mxCell id="ZAZgl5KKmcQe44znKTHs-147" value="" style="curved=1;startArrow=none;endArrow=block;exitX=0.5;exitY=1;entryX=0.33;entryY=0;rounded=0;" edge="1" parent="1" source="ZAZgl5KKmcQe44znKTHs-132" target="ZAZgl5KKmcQe44znKTHs-133">
          <mxGeometry relative="1" as="geometry">
            <Array as="points">
              <mxPoint x="483" y="7617" />
            </Array>
          </mxGeometry>
        </mxCell>
        <mxCell id="ZAZgl5KKmcQe44znKTHs-148" value="Skip" style="curved=1;startArrow=none;endArrow=block;exitX=0.79;exitY=1;entryX=0.79;entryY=0;rounded=0;" edge="1" parent="1" source="ZAZgl5KKmcQe44znKTHs-127" target="ZAZgl5KKmcQe44znKTHs-133">
          <mxGeometry relative="1" as="geometry">
            <Array as="points">
              <mxPoint x="710" y="7097" />
              <mxPoint x="710" y="7617" />
            </Array>
          </mxGeometry>
        </mxCell>
        <mxCell id="ZAZgl5KKmcQe44znKTHs-149" value="" style="curved=1;startArrow=none;endArrow=block;exitX=0.5;exitY=1;entryX=0.34;entryY=0;rounded=0;" edge="1" parent="1" source="ZAZgl5KKmcQe44znKTHs-133" target="ZAZgl5KKmcQe44znKTHs-134">
          <mxGeometry relative="1" as="geometry">
            <Array as="points">
              <mxPoint x="566" y="7721" />
            </Array>
          </mxGeometry>
        </mxCell>
        <mxCell id="ZAZgl5KKmcQe44znKTHs-150" value="Skip" style="curved=1;startArrow=none;endArrow=block;exitX=0.84;exitY=1;entryX=0.84;entryY=0;rounded=0;" edge="1" parent="1" source="ZAZgl5KKmcQe44znKTHs-126" target="ZAZgl5KKmcQe44znKTHs-134">
          <mxGeometry relative="1" as="geometry">
            <Array as="points">
              <mxPoint x="819" y="6993" />
              <mxPoint x="819" y="7721" />
            </Array>
          </mxGeometry>
        </mxCell>
        <mxCell id="ZAZgl5KKmcQe44znKTHs-151" value="" style="curved=1;startArrow=none;endArrow=block;exitX=0.5;exitY=1;entryX=0.21;entryY=0;rounded=0;" edge="1" parent="1" source="ZAZgl5KKmcQe44znKTHs-125" target="ZAZgl5KKmcQe44znKTHs-135">
          <mxGeometry relative="1" as="geometry">
            <Array as="points">
              <mxPoint x="813" y="6889" />
            </Array>
          </mxGeometry>
        </mxCell>
        <mxCell id="ZAZgl5KKmcQe44znKTHs-152" value="" style="curved=1;startArrow=none;endArrow=block;exitX=0.52;exitY=0;entryX=0.92;entryY=1;rounded=0;" edge="1" parent="1" source="ZAZgl5KKmcQe44znKTHs-135" target="ZAZgl5KKmcQe44znKTHs-125">
          <mxGeometry relative="1" as="geometry">
            <Array as="points">
              <mxPoint x="968" y="6889" />
            </Array>
          </mxGeometry>
        </mxCell>
        <mxCell id="ZAZgl5KKmcQe44znKTHs-153" value="" style="curved=1;startArrow=none;endArrow=block;exitX=0.5;exitY=1;entryX=0.5;entryY=0;rounded=0;" edge="1" parent="1" source="ZAZgl5KKmcQe44znKTHs-134" target="ZAZgl5KKmcQe44znKTHs-136">
          <mxGeometry relative="1" as="geometry">
            <Array as="points" />
          </mxGeometry>
        </mxCell>
        <mxCell id="ZAZgl5KKmcQe44znKTHs-154" value="" style="curved=1;startArrow=none;endArrow=block;exitX=0.5;exitY=1;entryX=0.5;entryY=0;rounded=0;" edge="1" parent="1" source="ZAZgl5KKmcQe44znKTHs-136" target="ZAZgl5KKmcQe44znKTHs-137">
          <mxGeometry relative="1" as="geometry">
            <Array as="points" />
          </mxGeometry>
        </mxCell>
        <mxCell id="ZAZgl5KKmcQe44znKTHs-155" value="Input 20ch" style="whiteSpace=wrap;strokeWidth=2;" vertex="1" parent="1">
          <mxGeometry x="1541" y="6810" width="135" height="54" as="geometry" />
        </mxCell>
        <mxCell id="ZAZgl5KKmcQe44znKTHs-156" value="SpectralAttention" style="whiteSpace=wrap;strokeWidth=2;" vertex="1" parent="1">
          <mxGeometry x="1516" y="6914" width="187" height="54" as="geometry" />
        </mxCell>
        <mxCell id="ZAZgl5KKmcQe44znKTHs-157" value="inc: 20-&gt;64" style="whiteSpace=wrap;strokeWidth=2;" vertex="1" parent="1">
          <mxGeometry x="1539" y="7018" width="140" height="54" as="geometry" />
        </mxCell>
        <mxCell id="ZAZgl5KKmcQe44znKTHs-158" value="down1: 64-&gt;128" style="whiteSpace=wrap;strokeWidth=2;" vertex="1" parent="1">
          <mxGeometry x="1461" y="7122" width="173" height="54" as="geometry" />
        </mxCell>
        <mxCell id="ZAZgl5KKmcQe44znKTHs-159" value="down2: 128-&gt;256" style="whiteSpace=wrap;strokeWidth=2;" vertex="1" parent="1">
          <mxGeometry x="1394" y="7226" width="182" height="54" as="geometry" />
        </mxCell>
        <mxCell id="ZAZgl5KKmcQe44znKTHs-160" value="down3: 256-&gt;512" style="whiteSpace=wrap;strokeWidth=2;" vertex="1" parent="1">
          <mxGeometry x="1331" y="7330" width="182" height="54" as="geometry" />
        </mxCell>
        <mxCell id="ZAZgl5KKmcQe44znKTHs-161" value="down4: 512-&gt;512" style="whiteSpace=wrap;strokeWidth=2;" vertex="1" parent="1">
          <mxGeometry x="1260" y="7434" width="182" height="54" as="geometry" />
        </mxCell>
        <mxCell id="ZAZgl5KKmcQe44znKTHs-162" value="up1: 1024-&gt;256" style="whiteSpace=wrap;strokeWidth=2;" vertex="1" parent="1">
          <mxGeometry x="1337" y="7538" width="170" height="54" as="geometry" />
        </mxCell>
        <mxCell id="ZAZgl5KKmcQe44znKTHs-163" value="up2: 512-&gt;128" style="whiteSpace=wrap;strokeWidth=2;" vertex="1" parent="1">
          <mxGeometry x="1404" y="7642" width="161" height="54" as="geometry" />
        </mxCell>
        <mxCell id="ZAZgl5KKmcQe44znKTHs-164" value="up3: 256-&gt;64" style="whiteSpace=wrap;strokeWidth=2;" vertex="1" parent="1">
          <mxGeometry x="1472" y="7746" width="153" height="54" as="geometry" />
        </mxCell>
        <mxCell id="ZAZgl5KKmcQe44znKTHs-165" value="up4: 128-&gt;64" style="whiteSpace=wrap;strokeWidth=2;" vertex="1" parent="1">
          <mxGeometry x="1533" y="7850" width="153" height="54" as="geometry" />
        </mxCell>
        <mxCell id="ZAZgl5KKmcQe44znKTHs-166" value="outc: 64-&gt;77" style="whiteSpace=wrap;strokeWidth=2;" vertex="1" parent="1">
          <mxGeometry x="1534" y="7954" width="150" height="54" as="geometry" />
        </mxCell>
        <mxCell id="ZAZgl5KKmcQe44znKTHs-167" value="Output 77ch" style="whiteSpace=wrap;strokeWidth=2;" vertex="1" parent="1">
          <mxGeometry x="1535" y="8058" width="148" height="54" as="geometry" />
        </mxCell>
        <mxCell id="ZAZgl5KKmcQe44znKTHs-168" value="" style="curved=1;startArrow=none;endArrow=block;exitX=0.5;exitY=1;entryX=0.5;entryY=0;rounded=0;" edge="1" parent="1" source="ZAZgl5KKmcQe44znKTHs-155" target="ZAZgl5KKmcQe44znKTHs-156">
          <mxGeometry relative="1" as="geometry">
            <Array as="points" />
          </mxGeometry>
        </mxCell>
        <mxCell id="ZAZgl5KKmcQe44znKTHs-169" value="" style="curved=1;startArrow=none;endArrow=block;exitX=0.5;exitY=1;entryX=0.5;entryY=0;rounded=0;" edge="1" parent="1" source="ZAZgl5KKmcQe44znKTHs-156" target="ZAZgl5KKmcQe44znKTHs-157">
          <mxGeometry relative="1" as="geometry">
            <Array as="points" />
          </mxGeometry>
        </mxCell>
        <mxCell id="ZAZgl5KKmcQe44znKTHs-170" value="" style="curved=1;startArrow=none;endArrow=block;exitX=0.27;exitY=1;entryX=0.5;entryY=0;rounded=0;" edge="1" parent="1" source="ZAZgl5KKmcQe44znKTHs-157" target="ZAZgl5KKmcQe44znKTHs-158">
          <mxGeometry relative="1" as="geometry">
            <Array as="points">
              <mxPoint x="1548" y="7097" />
            </Array>
          </mxGeometry>
        </mxCell>
        <mxCell id="ZAZgl5KKmcQe44znKTHs-171" value="" style="curved=1;startArrow=none;endArrow=block;exitX=0.31;exitY=1;entryX=0.5;entryY=0;rounded=0;" edge="1" parent="1" source="ZAZgl5KKmcQe44znKTHs-158" target="ZAZgl5KKmcQe44znKTHs-159">
          <mxGeometry relative="1" as="geometry">
            <Array as="points">
              <mxPoint x="1485" y="7201" />
            </Array>
          </mxGeometry>
        </mxCell>
        <mxCell id="ZAZgl5KKmcQe44znKTHs-172" value="" style="curved=1;startArrow=none;endArrow=block;exitX=0.32;exitY=1;entryX=0.5;entryY=0;rounded=0;" edge="1" parent="1" source="ZAZgl5KKmcQe44znKTHs-159" target="ZAZgl5KKmcQe44znKTHs-160">
          <mxGeometry relative="1" as="geometry">
            <Array as="points">
              <mxPoint x="1422" y="7305" />
            </Array>
          </mxGeometry>
        </mxCell>
        <mxCell id="ZAZgl5KKmcQe44znKTHs-173" value="" style="curved=1;startArrow=none;endArrow=block;exitX=0.3;exitY=1;entryX=0.5;entryY=0;rounded=0;" edge="1" parent="1" source="ZAZgl5KKmcQe44znKTHs-160" target="ZAZgl5KKmcQe44znKTHs-161">
          <mxGeometry relative="1" as="geometry">
            <Array as="points">
              <mxPoint x="1351" y="7409" />
            </Array>
          </mxGeometry>
        </mxCell>
        <mxCell id="ZAZgl5KKmcQe44znKTHs-174" value="" style="curved=1;startArrow=none;endArrow=block;exitX=0.5;exitY=1;entryX=0.28;entryY=0;rounded=0;" edge="1" parent="1" source="ZAZgl5KKmcQe44znKTHs-161" target="ZAZgl5KKmcQe44znKTHs-162">
          <mxGeometry relative="1" as="geometry">
            <Array as="points">
              <mxPoint x="1351" y="7513" />
            </Array>
          </mxGeometry>
        </mxCell>
        <mxCell id="ZAZgl5KKmcQe44znKTHs-175" value="Skip" style="curved=1;startArrow=none;endArrow=block;exitX=0.7;exitY=1;entryX=0.72;entryY=0;rounded=0;" edge="1" parent="1" source="ZAZgl5KKmcQe44znKTHs-160" target="ZAZgl5KKmcQe44znKTHs-162">
          <mxGeometry relative="1" as="geometry">
            <Array as="points">
              <mxPoint x="1493" y="7409" />
              <mxPoint x="1493" y="7513" />
            </Array>
          </mxGeometry>
        </mxCell>
        <mxCell id="ZAZgl5KKmcQe44znKTHs-176" value="" style="curved=1;startArrow=none;endArrow=block;exitX=0.5;exitY=1;entryX=0.3;entryY=0;rounded=0;" edge="1" parent="1" source="ZAZgl5KKmcQe44znKTHs-162" target="ZAZgl5KKmcQe44znKTHs-163">
          <mxGeometry relative="1" as="geometry">
            <Array as="points">
              <mxPoint x="1422" y="7617" />
            </Array>
          </mxGeometry>
        </mxCell>
        <mxCell id="ZAZgl5KKmcQe44znKTHs-177" value="Skip" style="curved=1;startArrow=none;endArrow=block;exitX=0.78;exitY=1;entryX=0.82;entryY=0;rounded=0;" edge="1" parent="1" source="ZAZgl5KKmcQe44znKTHs-159" target="ZAZgl5KKmcQe44znKTHs-163">
          <mxGeometry relative="1" as="geometry">
            <Array as="points">
              <mxPoint x="1583" y="7305" />
              <mxPoint x="1583" y="7617" />
            </Array>
          </mxGeometry>
        </mxCell>
        <mxCell id="ZAZgl5KKmcQe44znKTHs-178" value="" style="curved=1;startArrow=none;endArrow=block;exitX=0.5;exitY=1;entryX=0.28;entryY=0;rounded=0;" edge="1" parent="1" source="ZAZgl5KKmcQe44znKTHs-163" target="ZAZgl5KKmcQe44znKTHs-164">
          <mxGeometry relative="1" as="geometry">
            <Array as="points">
              <mxPoint x="1485" y="7721" />
            </Array>
          </mxGeometry>
        </mxCell>
        <mxCell id="ZAZgl5KKmcQe44znKTHs-179" value="Skip" style="curved=1;startArrow=none;endArrow=block;exitX=0.88;exitY=1;entryX=0.92;entryY=0;rounded=0;" edge="1" parent="1" source="ZAZgl5KKmcQe44znKTHs-158" target="ZAZgl5KKmcQe44znKTHs-164">
          <mxGeometry relative="1" as="geometry">
            <Array as="points">
              <mxPoint x="1673" y="7201" />
              <mxPoint x="1673" y="7721" />
            </Array>
          </mxGeometry>
        </mxCell>
        <mxCell id="ZAZgl5KKmcQe44znKTHs-180" value="" style="curved=1;startArrow=none;endArrow=block;exitX=0.5;exitY=1;entryX=0.29;entryY=0;rounded=0;" edge="1" parent="1" source="ZAZgl5KKmcQe44znKTHs-164" target="ZAZgl5KKmcQe44znKTHs-165">
          <mxGeometry relative="1" as="geometry">
            <Array as="points">
              <mxPoint x="1548" y="7825" />
            </Array>
          </mxGeometry>
        </mxCell>
        <mxCell id="ZAZgl5KKmcQe44znKTHs-181" value="Skip" style="curved=1;startArrow=none;endArrow=block;exitX=1;exitY=0.95;entryX=1;entryY=0.01;rounded=0;" edge="1" parent="1" source="ZAZgl5KKmcQe44znKTHs-157" target="ZAZgl5KKmcQe44znKTHs-165">
          <mxGeometry relative="1" as="geometry">
            <Array as="points">
              <mxPoint x="1760" y="7097" />
              <mxPoint x="1760" y="7825" />
            </Array>
          </mxGeometry>
        </mxCell>
        <mxCell id="ZAZgl5KKmcQe44znKTHs-182" value="" style="curved=1;startArrow=none;endArrow=block;exitX=0.5;exitY=1;entryX=0.5;entryY=0;rounded=0;" edge="1" parent="1" source="ZAZgl5KKmcQe44znKTHs-165" target="ZAZgl5KKmcQe44znKTHs-166">
          <mxGeometry relative="1" as="geometry">
            <Array as="points" />
          </mxGeometry>
        </mxCell>
        <mxCell id="ZAZgl5KKmcQe44znKTHs-183" value="" style="curved=1;startArrow=none;endArrow=block;exitX=0.5;exitY=1;entryX=0.5;entryY=0;rounded=0;" edge="1" parent="1" source="ZAZgl5KKmcQe44znKTHs-166" target="ZAZgl5KKmcQe44znKTHs-167">
          <mxGeometry relative="1" as="geometry">
            <Array as="points" />
          </mxGeometry>
        </mxCell>
      </root>
    </mxGraphModel>
  </diagram>
</mxfile>
